<svg width="36" height="29" viewBox="0 0 36 29" fill="none" xmlns="http://www.w3.org/2000/svg">
<path d="M35.1 11.7812H31.5V8.15625C31.5 7.65781 31.095 7.25 30.6 7.25H28.8C28.305 7.25 27.9 7.65781 27.9 8.15625V11.7812H24.3C23.805 11.7812 23.4 12.1891 23.4 12.6875V14.5C23.4 14.9984 23.805 15.4062 24.3 15.4062H27.9V19.0312C27.9 19.5297 28.305 19.9375 28.8 19.9375H30.6C31.095 19.9375 31.5 19.5297 31.5 19.0312V15.4062H35.1C35.595 15.4062 36 14.9984 36 14.5V12.6875C36 12.1891 35.595 11.7812 35.1 11.7812ZM12.6 14.5C16.5769 14.5 19.8 11.2545 19.8 7.25C19.8 3.24551 16.5769 0 12.6 0C8.62313 0 5.4 3.24551 5.4 7.25C5.4 11.2545 8.62313 14.5 12.6 14.5ZM17.64 16.3125H16.7006C15.4519 16.8902 14.0625 17.2188 12.6 17.2188C11.1375 17.2188 9.75375 16.8902 8.49938 16.3125H7.56C3.38625 16.3125 0 19.7223 0 23.925V26.2812C0 27.7822 1.20938 29 2.7 29H22.5C23.9906 29 25.2 27.7822 25.2 26.2812V23.925C25.2 19.7223 21.8137 16.3125 17.64 16.3125Z" fill="#89BA9F"/>
</svg>
