<svg xmlns="http://www.w3.org/2000/svg" viewBox="0 0 205.46 205.46"><defs><style>.cls-1{fill:#ffba40;}.cls-2{fill:#fcfcfc;}</style></defs><g id="레이어_2" data-name="레이어 2"><g id="레이어_1-2" data-name="레이어 1"><rect class="cls-1" width="205.46" height="205.46" rx="12"/><path class="cls-2" d="M129.63,109.64a10.54,10.54,0,0,1,0-14.91l45-45a10.54,10.54,0,0,0-7.46-18H42.28A10.54,10.54,0,0,0,31.74,42.29V162.08a10.54,10.54,0,0,0,10.54,10.54H56.35l28.53,10.74c3.07,1.15,6.56-.69,6.56-3.46V116a3.85,3.85,0,0,0-2.7-3.46l-26.38-9.92c-.09,0-.18-.06-.27-.09h39.68a5.67,5.67,0,0,1,5.67,5.67v64.39h59.71a10.54,10.54,0,0,0,7.46-18Z"/></g></g></svg>