<svg xmlns="http://www.w3.org/2000/svg" viewBox="0 0 205.46 205.46"><g id="레이어_2" data-name="레이어 2"><g id="레이어_1-2" data-name="레이어 1"><rect width="205.46" height="205.46" rx="12" fill="#020202"/><path d="M127.93,109.51a9.81,9.81,0,0,1,0-13.89l41.91-41.91a9.82,9.82,0,0,0-7-16.77H46.55a9.83,9.83,0,0,0-9.83,9.82V158.37a9.83,9.83,0,0,0,9.83,9.82h13.1l26.59,10c2.85,1.08,6.1-.64,6.1-3.22V115.46a3.58,3.58,0,0,0-2.51-3.22L65.25,103l-.25-.07h37a5.28,5.28,0,0,1,5.29,5.28v60h55.63a9.82,9.82,0,0,0,7-16.77Z" fill="#fcfcfc"/></g></g></svg>