<svg width="19" height="20" viewBox="0 0 19 20" fill="none" xmlns="http://www.w3.org/2000/svg">
<path d="M17.6429 7.85714H11.5357V1.42857C11.5357 0.639732 10.928 0 10.1786 0H8.82143C8.07203 0 7.46429 0.639732 7.46429 1.42857V7.85714H1.35714C0.607746 7.85714 0 8.49687 0 9.28571V10.7143C0 11.5031 0.607746 12.1429 1.35714 12.1429H7.46429V18.5714C7.46429 19.3603 8.07203 20 8.82143 20H10.1786C10.928 20 11.5357 19.3603 11.5357 18.5714V12.1429H17.6429C18.3923 12.1429 19 11.5031 19 10.7143V9.28571C19 8.49687 18.3923 7.85714 17.6429 7.85714Z" fill="white"/>
</svg>
